<mxfile host="app.diagrams.net" modified="2023-10-25T15:06:29.263Z" agent="Mozilla/5.0 (Windows NT 10.0; Win64; x64) AppleWebKit/537.36 (KHTML, like Gecko) Chrome/118.0.0.0 Safari/537.36 Edg/118.0.2088.57" version="22.0.7" etag="wmwnKxdf5xhHsFLeMZZA" type="github">
  <diagram name="Seite-1" id="zaw1jmgNEW9GkodB4aJ-">
    <mxGraphModel>
      <root>
        <mxCell id="0" />
        <mxCell id="1" parent="0" />
      </root>
    </mxGraphModel>
  </diagram>
</mxfile>
